# xmcd CD database file
#
# Track frame offsets:
#	150
#	13108
#	25909
#	38899
#	51144
#	64239
#	83340
#	96932
#	110402
#	121280
#	138525
#	147759
#	159264
#	184565
#	214550
#	243649
#	276648
#
# Disc length: 3965 seconds
#
# Revision: 1
# Processed by: cddbd v1.5.2PL0 Copyright (c) Steve Scherf et al.
# Submitted via: CDex 1.70beta2
#
DISCID=ec0f7b11
DTITLE=Pee Wee Russell - Giants of Jazz 2
DYEAR=1900
DGENRE=Jazz
TTITLE0=Shim-Me-Sha-Wabble: Bud Freeman and His Famous Chicagoans 
TTITLE1=Oh, Sister! Ain’t That Hot?: Eddie Condon and His Band
TTITLE2=(You’re Some) Pretty Doll: Eddie Condon and His Band
TTITLE3=Jig Walk: The Three Deuces
TTITLE4=The Last Time I Saw Chicago: The Three Deuces 
TTITLE5=That’s a Plenty: Wild Bill Davison and His Commodores
TTITLE6=Take Me to the Land of Jazz: Pee Wee Russell’s Hot Four
TTITLE7=Since My Best Gal Turned Me Down: Pee Wee Russell Jazz Ensemble 
TTITLE8=Muskogee Blues: Pee Wee Russell Jazz Ensemble
TTITLE9=Old Folks: George Wettling jazz Trio
TTITLE10=Three-Two-One Blues: Eddie Condon and His All Stars 
TTITLE11=I’d Climb the Highest Mountain: Pee Wee Russell Quintet 
TTITLE12=Wrap Your Troubles in Dreams: Pee Wee Russell Quintet 
TTITLE13=Englewood: Pee Wee Russell Quintet
TTITLE14=If I Could Be With You (One Hour Tonight): Pee Wee Russell-Coleman Hawkins All Stars
TTITLE15=Mariooch: Pee Wee Russell-Coleman Hawkins All Stars 
TTITLE16=Pee Wee’s Blues: Pee Wee Russell Quartet
EXTD=
EXTT0=
EXTT1=
EXTT2=
EXTT3=
EXTT4=
EXTT5=
EXTT6=
EXTT7=
EXTT8=
EXTT9=
EXTT10=
EXTT11=
EXTT12=
EXTT13=
EXTT14=
EXTT15=
EXTT16=
PLAYORDER=
